<svg xmlns="http://www.w3.org/2000/svg" xmlns:xlink="http://www.w3.org/1999/xlink" width="408.002" height="238.56" viewBox="0 0 408.00201 238.56">
  <defs>
    <path id="d" d="M97.672 306.223l35.06 35.274c2.23 2.243 5.847 2.243 8.077 0 2.228-2.243 2.228-5.88 0-8.124l-31.025-31.21 31.022-31.213c2.23-2.244 2.23-5.88 0-8.124-2.23-2.244-5.845-2.244-8.076 0L97.67 298.1c-1.114 1.12-1.67 2.59-1.67 4.062 0 1.47.558 2.94 1.672 4.06z"/>
    <path id="c" d="M502.328 306.223l-35.06 35.274c-2.23 2.243-5.848 2.243-8.076 0-2.23-2.243-2.23-5.88 0-8.124l31.023-31.21-31.022-31.213c-2.23-2.244-2.23-5.88 0-8.124 2.23-2.244 5.845-2.244 8.075 0l35.06 35.274c1.116 1.12 1.673 2.59 1.673 4.062 0 1.47-.56 2.94-1.672 4.06z"/>
    <path id="a" d="M208.16 405.556c-13.573 0-23.972-10.354-23.972-23.868 0-10.312 6.35-19.045 15.953-22.247V238.56c0-3.95 3.175-7.942 7.978-7.942 4.804 0 7.978 3.16 7.978 7.942v120.88c9.604 3.203 15.994 11.936 16.036 22.248 0 13.513-10.4 23.868-23.972 23.868zm-.043 15.884c-22.342 0-39.924-17.507-39.924-39.753 0-12.725 6.347-24.66 15.953-31.812V206.75c0-12.725 10.4-23.87 23.97-23.87 13.574 0 23.973 10.354 23.973 23.87v143.168c9.562 7.152 15.952 19.045 15.952 31.77 0 22.246-17.58 39.752-39.925 39.752zm15.912-67.572v-147.12c0-8.732-7.185-15.884-15.954-15.884-8.77 0-15.953 7.152-15.953 15.884v147.16c-9.563 5.573-15.953 15.886-15.953 27.82 0 17.506 14.366 31.812 31.947 31.812 17.583 0 31.95-14.347 31.865-31.853 0-11.934-6.347-22.247-15.953-27.82z"/>
    <path id="b" d="M272.573 291.164v10.587h18.95v10.67h-18.95v19.286h-12.88v-51.293h36.67v10.75h-23.79zm68.99 30.037v10.506h-37.488v-51.293h37.49v10.504h-24.692v9.85h19.852v10.422h-19.852V321.2h24.69zm27.976 10.506h-4.103l-18.704-51.293h3.527l17.31 47.93 17.31-47.93h3.444l-18.785 51.293zm45.365-22.733l14.603 22.733h-3.855L411.79 309.63l-11.65.738v21.338h-3.444v-51.293h12.14c12.798 0 18.377 5.745 18.377 14.526-.002 7.713-5.99 12.31-12.308 14.033zm-6.48-25.442h-8.285v23.72l9.927-.33c6.89-.245 13.617-4.595 13.617-11.898 0-7.305-5.086-11.49-15.26-11.49z"/>
  </defs>
  <use height="600" width="600" overflow="visible" xlink:href="#b" transform="translate(-96 -182.88)"/>
  <use height="600" width="600" overflow="visible" xlink:href="#a" transform="translate(-96 -182.88)" fill="#ebad26"/>
  <use height="600" width="600" overflow="visible" xlink:href="#c" transform="translate(-96 -182.88)"/>
  <use height="600" width="600" overflow="visible" xlink:href="#d" transform="translate(-96 -182.88)"/>
</svg>
